THE.PATRIOT.BDremux.Extended.Cut.AVC.DTS MA 5.1.-MrE.iso     |
_____________________________________________________________|

The Patriot (2000)
:::::::::::::::::::::::::::::::::::

Peaceful farmer Benjamin Martin is driven to lead the Colonial Militia during the American Revolution when a sadistic British officer murders his son. 
...................................................................................

Storyline

It is 1776 in colonial South Carolina. Benjamin Martin, a French-Indian war hero who is haunted by his past, now wants nothing more then to live peacefully on his small plantation, and wants no part of a war with the most powerful nation in the world, Great Britain. Meanwhile, his two eldest sons, Gabriel and Thomas, can't wait to enlist in the newly formed "Continental Army." When South Carolina decides to join the rebellion against England, Gabriel immediately signs up to fight...without his father's permission. But when Colonel William Tavington, British dragoon, infamous for his brutal tactics, comes and burns the Martin Plantation to the ground, tragedy strikes. Benjamin quickly finds himself torn between protecting his family, and seeking revenge along with being a part of the birth of new, young, and ambitious nation.


General
ID                               : 1
Format                           : BDAV
Format/Info                      : Blu-ray Video
File size                        : 21.0 GiB
Duration                         : 2h 55mn
Overall bit rate                 : 17.2 Mbps
Maximum Overall bit rate         : 35.5 Mbps

Video
ID                               : 4113 (0x1011)
Menu ID                          : 1 (0x1)
Format                           : AVC
Format/Info                      : Advanced Video Codec
Format profile                   : High@L4.1
Format settings, CABAC           : Yes
Format settings, ReFrames        : 3 frames
Format settings, GOP             : M=4, N=16
Codec ID                         : 27
Duration                         : 2h 55mn
Bit rate mode                    : Variable
Bit rate                         : 15.2 Mbps
Maximum bit rate                 : 35.0 Mbps
Width                            : 1 920 pixels
Height                           : 1 080 pixels
Display aspect ratio             : 16:9
Frame rate                       : 23.976 fps
Color space                      : YUV
Chroma subsampling               : 4:2:0
Bit depth                        : 8 bits
Scan type                        : Progressive
Bits/(Pixel*Frame)               : 0.305
Stream size                      : 18.6 GiB (88%)
Writing library                  : x264 core 114 r1900 60ef1f8


Audio #1
ID                               : 4352 (0x1100)
Menu ID                          : 1 (0x1)
Format                           : AC-3
Format/Info                      : Audio Coding 3
Mode extension                   : CM (complete main)
Codec ID                         : 129
Duration                         : 2h 55mn
Bit rate mode                    : Constant
Bit rate                         : 640 Kbps
Channel(s)                       : 6 channels
Channel positions                : Front: L C R, Side: L R, LFE
Sampling rate                    : 48.0 KHz
Bit depth                        : 16 bits
Stream size                      : 802 MiB (4%)
Language                         : English

Audio #2
ID                               : 4353 (0x1101)
Menu ID                          : 1 (0x1)
Format                           : AC-3
Format/Info                      : Audio Coding 3
Mode extension                   : CM (complete main)
Codec ID                         : 129
Duration                         : 2h 55mn
Bit rate mode                    : Constant
Bit rate                         : 640 Kbps
Channel(s)                       : 6 channels
Channel positions                : Front: L C R, Side: L R, LFE
Sampling rate                    : 48.0 KHz
Bit depth                        : 16 bits
Stream size                      : 802 MiB (4%)
Language                         : Italian

Text #1
ID                               : 4608 (0x1200)
Menu ID                          : 1 (0x1)
Format                           : PGS
Codec ID                         : 144
Language                         : English

Text #2
ID                               : 4609 (0x1201)
Menu ID                          : 1 (0x1)
Format                           : PGS
Codec ID                         : 144
Language                         : Italian

.................................................................................
..............................................................................
...........................................................................
.......................................................................
..................................................................
MOUNT IMAGE WITH DAEMON TOOLS AND YOU WILL HAVE BLURAY WITH MENU...If not, just extract BDMV and CERTIFICAT and wuuuola :-) I remuxed original BluRay to smaller size (50BD to 25BD), but video and audio is still great - if you ask me, like on the 50BD :-)
Enjoy watching the movie is superior.
__________________________________________________________________________________

And please,

       ____                                     _____                       ______
:**   :         :***         *  ***********  *  *        **     *    ***   *
:  *  :         :   *       * *      *       *  *        * *    *   *   *  *
:   * :         :    *     *   *     *       *  *        *  *   *  *       *
:   * :         :    *    *     *    *       *  *        *   *  *  *       *
:  *  :         :    *   *       *   *       *  *        *    * *  *       *---
:**   :--       :   *    * ***** *   *       *  *----    *     **  *       *
:  *  :         :***     *       *   *       *  *        *      *  *       *
:   * :         :        *       *   *       *  *        *      *  *       *
:   * :         :        *       *   *       *  *        *      *   *   *  *
:__*  :____     :        *       *   *       *  *_____   *      *    ***   *______



I don't have god upload but still...Just give time and wait.Don't forget that I'm doing this for you!!!!
_______________________
